<svg xmlns="http://www.w3.org/2000/svg" xmlns:xlink="http://www.w3.org/1999/xlink" width="500" zoomAndPan="magnify" viewBox="0 0 375 374.999991" height="500" preserveAspectRatio="xMidYMid meet" version="1.0"><defs><clipPath id="6e3e7f4ac9"><path d="M 197 1 L 342 1 L 342 85 L 197 85 Z M 197 1 " clip-rule="nonzero"/></clipPath><clipPath id="35e1762cf2"><path d="M 425.398438 91.347656 L 305.097656 299.023438 L 113 187.742188 L 233.300781 -19.929688 Z M 425.398438 91.347656 " clip-rule="nonzero"/></clipPath><clipPath id="1e439bfddc"><path d="M 425.398438 91.347656 L 305.097656 299.023438 L 113 187.742188 L 233.300781 -19.929688 Z M 425.398438 91.347656 " clip-rule="nonzero"/></clipPath><clipPath id="0b111f51f1"><path d="M 196 42 L 270 42 L 270 279 L 196 279 Z M 196 42 " clip-rule="nonzero"/></clipPath><clipPath id="3ff9d525e7"><path d="M 425.398438 91.347656 L 305.097656 299.023438 L 113 187.742188 L 233.300781 -19.929688 Z M 425.398438 91.347656 " clip-rule="nonzero"/></clipPath><clipPath id="4482ca7b63"><path d="M 425.398438 91.347656 L 305.097656 299.023438 L 113 187.742188 L 233.300781 -19.929688 Z M 425.398438 91.347656 " clip-rule="nonzero"/></clipPath><clipPath id="9a7d3d955d"><path d="M 353.09375 133.144531 L 269.121094 278.105469 L 113.085938 187.714844 L 197.058594 42.753906 Z M 353.09375 133.144531 " clip-rule="nonzero"/></clipPath><clipPath id="bd3846d583"><path d="M 269 42 L 342 42 L 342 279 L 269 279 Z M 269 42 " clip-rule="nonzero"/></clipPath><clipPath id="66e9d51645"><path d="M 425.398438 91.347656 L 305.097656 299.023438 L 113 187.742188 L 233.300781 -19.929688 Z M 425.398438 91.347656 " clip-rule="nonzero"/></clipPath><clipPath id="f13c043dfc"><path d="M 425.398438 91.347656 L 305.097656 299.023438 L 113 187.742188 L 233.300781 -19.929688 Z M 425.398438 91.347656 " clip-rule="nonzero"/></clipPath><clipPath id="bf2d267f90"><path d="M 425.394531 91.347656 L 305.128906 298.960938 L 184.863281 229.292969 L 305.128906 21.679688 Z M 425.394531 91.347656 " clip-rule="nonzero"/></clipPath><clipPath id="d5369aeab2"><path d="M 115 49 L 260 49 L 260 133 L 115 133 Z M 115 49 " clip-rule="nonzero"/></clipPath><clipPath id="92da6bf7e7"><path d="M 343.550781 139.355469 L 223.25 347.027344 L 31.15625 235.746094 L 151.457031 28.074219 Z M 343.550781 139.355469 " clip-rule="nonzero"/></clipPath><clipPath id="ca10d5a109"><path d="M 343.550781 139.355469 L 223.25 347.027344 L 31.15625 235.746094 L 151.457031 28.074219 Z M 343.550781 139.355469 " clip-rule="nonzero"/></clipPath><clipPath id="c582d09ad0"><path d="M 115 90 L 188 90 L 188 327 L 115 327 Z M 115 90 " clip-rule="nonzero"/></clipPath><clipPath id="8b146fb953"><path d="M 343.550781 139.355469 L 223.25 347.027344 L 31.15625 235.746094 L 151.457031 28.074219 Z M 343.550781 139.355469 " clip-rule="nonzero"/></clipPath><clipPath id="ced1b56527"><path d="M 343.550781 139.355469 L 223.25 347.027344 L 31.15625 235.746094 L 151.457031 28.074219 Z M 343.550781 139.355469 " clip-rule="nonzero"/></clipPath><clipPath id="00bdc62cc6"><path d="M 271.25 181.148438 L 187.273438 326.109375 L 31.242188 235.71875 L 115.214844 90.761719 Z M 271.25 181.148438 " clip-rule="nonzero"/></clipPath><clipPath id="b2c1269d1c"><path d="M 187 90 L 260 90 L 260 327 L 187 327 Z M 187 90 " clip-rule="nonzero"/></clipPath><clipPath id="eaf5ac517d"><path d="M 343.550781 139.355469 L 223.25 347.027344 L 31.15625 235.746094 L 151.457031 28.074219 Z M 343.550781 139.355469 " clip-rule="nonzero"/></clipPath><clipPath id="e9f626ccfc"><path d="M 343.550781 139.355469 L 223.25 347.027344 L 31.15625 235.746094 L 151.457031 28.074219 Z M 343.550781 139.355469 " clip-rule="nonzero"/></clipPath><clipPath id="2314d01e2f"><path d="M 343.550781 139.351562 L 223.28125 346.96875 L 103.015625 277.300781 L 223.285156 69.683594 Z M 343.550781 139.351562 " clip-rule="nonzero"/></clipPath><clipPath id="22db832453"><path d="M 33 97 L 179 97 L 179 181 L 33 181 Z M 33 97 " clip-rule="nonzero"/></clipPath><clipPath id="681cf8fbdf"><path d="M 261.917969 187.273438 L 141.617188 394.945312 L -50.476562 283.667969 L 69.824219 75.996094 Z M 261.917969 187.273438 " clip-rule="nonzero"/></clipPath><clipPath id="e68ee8d3a5"><path d="M 261.917969 187.273438 L 141.617188 394.945312 L -50.476562 283.667969 L 69.824219 75.996094 Z M 261.917969 187.273438 " clip-rule="nonzero"/></clipPath><clipPath id="223a316600"><path d="M 33 138 L 106 138 L 106 374 L 33 374 Z M 33 138 " clip-rule="nonzero"/></clipPath><clipPath id="d204773c8f"><path d="M 261.917969 187.273438 L 141.617188 394.945312 L -50.476562 283.667969 L 69.824219 75.996094 Z M 261.917969 187.273438 " clip-rule="nonzero"/></clipPath><clipPath id="59d9f636fd"><path d="M 261.917969 187.273438 L 141.617188 394.945312 L -50.476562 283.667969 L 69.824219 75.996094 Z M 261.917969 187.273438 " clip-rule="nonzero"/></clipPath><clipPath id="7e61e25677"><path d="M 189.613281 229.066406 L 105.640625 374.027344 L -50.390625 283.640625 L 33.582031 138.679688 Z M 189.613281 229.066406 " clip-rule="nonzero"/></clipPath><clipPath id="1c0c0668b7"><path d="M 105 138 L 179 138 L 179 374 L 105 374 Z M 105 138 " clip-rule="nonzero"/></clipPath><clipPath id="9b0874b48b"><path d="M 261.917969 187.273438 L 141.617188 394.945312 L -50.476562 283.667969 L 69.824219 75.996094 Z M 261.917969 187.273438 " clip-rule="nonzero"/></clipPath><clipPath id="eae1c377e0"><path d="M 261.917969 187.273438 L 141.617188 394.945312 L -50.476562 283.667969 L 69.824219 75.996094 Z M 261.917969 187.273438 " clip-rule="nonzero"/></clipPath><clipPath id="ed92862b0e"><path d="M 261.917969 187.273438 L 141.648438 394.886719 L 21.382812 325.21875 L 141.652344 117.605469 Z M 261.917969 187.273438 " clip-rule="nonzero"/></clipPath></defs><g clip-path="url(#6e3e7f4ac9)"><g clip-path="url(#35e1762cf2)"><g clip-path="url(#1e439bfddc)"><path fill="#ff914d" d="M 197.085938 42.851562 L 269.625 1.113281 L 341.523438 42.914062 L 269.050781 84.539062 L 197.085938 42.851562 " fill-opacity="1" fill-rule="nonzero"/></g></g></g><g clip-path="url(#0b111f51f1)"><g clip-path="url(#3ff9d525e7)"><g clip-path="url(#4482ca7b63)"><g clip-path="url(#9a7d3d955d)"><path fill="#7a2f00" d="M 196.953125 236.300781 L 197.054688 42.765625 L 269.019531 84.453125 L 269.070312 278.074219 L 196.953125 236.300781 " fill-opacity="1" fill-rule="nonzero"/></g></g></g></g><g clip-path="url(#bd3846d583)"><g clip-path="url(#66e9d51645)"><g clip-path="url(#f13c043dfc)"><g clip-path="url(#bf2d267f90)"><path fill="#ff751f" d="M 269 84.582031 L 341.355469 42.890625 L 341.546875 236.09375 L 269.070312 278.074219 L 269 84.582031 " fill-opacity="1" fill-rule="nonzero"/></g></g></g></g><g clip-path="url(#d5369aeab2)"><g clip-path="url(#92da6bf7e7)"><g clip-path="url(#ca10d5a109)"><path fill="#ff914d" d="M 115.238281 90.855469 L 187.777344 49.117188 L 259.675781 90.917969 L 187.203125 132.542969 L 115.238281 90.855469 " fill-opacity="1" fill-rule="nonzero"/></g></g></g><g clip-path="url(#c582d09ad0)"><g clip-path="url(#8b146fb953)"><g clip-path="url(#ced1b56527)"><g clip-path="url(#00bdc62cc6)"><path fill="#7a2f00" d="M 115.109375 284.304688 L 115.210938 90.769531 L 187.175781 132.457031 L 187.222656 326.078125 L 115.109375 284.304688 " fill-opacity="1" fill-rule="nonzero"/></g></g></g></g><g clip-path="url(#b2c1269d1c)"><g clip-path="url(#eaf5ac517d)"><g clip-path="url(#e9f626ccfc)"><g clip-path="url(#2314d01e2f)"><path fill="#ff751f" d="M 187.152344 132.585938 L 259.511719 90.894531 L 259.703125 284.097656 L 187.222656 326.078125 L 187.152344 132.585938 " fill-opacity="1" fill-rule="nonzero"/></g></g></g></g><g clip-path="url(#22db832453)"><g clip-path="url(#681cf8fbdf)"><g clip-path="url(#e68ee8d3a5)"><path fill="#ff914d" d="M 33.605469 138.777344 L 106.144531 97.035156 L 178.042969 138.839844 L 105.570312 180.464844 L 33.605469 138.777344 " fill-opacity="1" fill-rule="nonzero"/></g></g></g><g clip-path="url(#223a316600)"><g clip-path="url(#d204773c8f)"><g clip-path="url(#59d9f636fd)"><g clip-path="url(#7e61e25677)"><path fill="#7a2f00" d="M 33.476562 332.222656 L 33.574219 138.6875 L 105.542969 180.375 L 105.589844 374 L 33.476562 332.222656 " fill-opacity="1" fill-rule="nonzero"/></g></g></g></g><g clip-path="url(#1c0c0668b7)"><g clip-path="url(#9b0874b48b)"><g clip-path="url(#eae1c377e0)"><g clip-path="url(#ed92862b0e)"><path fill="#ff751f" d="M 105.519531 180.507812 L 177.875 138.816406 L 178.070312 332.015625 L 105.589844 374 L 105.519531 180.507812 " fill-opacity="1" fill-rule="nonzero"/></g></g></g></g></svg>