<svg xmlns="http://www.w3.org/2000/svg" xmlns:xlink="http://www.w3.org/1999/xlink" width="500" zoomAndPan="magnify" viewBox="0 0 375 187.499995" height="250" preserveAspectRatio="xMidYMid meet" version="1.0"><defs><g/><clipPath id="979e447a21"><rect x="0" width="174" y="0" height="105"/></clipPath><clipPath id="1125bd74bc"><path d="M 59 20 L 110 20 L 110 50 L 59 50 Z M 59 20 " clip-rule="nonzero"/></clipPath><clipPath id="b78a944115"><path d="M 138.410156 52.3125 L 96.792969 124.160156 L 30.125 85.539062 L 71.742188 13.695312 Z M 138.410156 52.3125 " clip-rule="nonzero"/></clipPath><clipPath id="36a357eb7b"><path d="M 138.410156 52.3125 L 96.792969 124.160156 L 30.125 85.539062 L 71.742188 13.695312 Z M 138.410156 52.3125 " clip-rule="nonzero"/></clipPath><clipPath id="18ad480872"><path d="M 59 35 L 85 35 L 85 118 L 59 118 Z M 59 35 " clip-rule="nonzero"/></clipPath><clipPath id="4e9bc22ca9"><path d="M 138.410156 52.3125 L 96.792969 124.160156 L 30.125 85.539062 L 71.742188 13.695312 Z M 138.410156 52.3125 " clip-rule="nonzero"/></clipPath><clipPath id="86527e385f"><path d="M 138.410156 52.3125 L 96.792969 124.160156 L 30.125 85.539062 L 71.742188 13.695312 Z M 138.410156 52.3125 " clip-rule="nonzero"/></clipPath><clipPath id="d57e09dfc8"><path d="M 113.3125 66.824219 L 84.167969 117.136719 L 30.007812 85.765625 L 59.15625 35.449219 Z M 113.3125 66.824219 " clip-rule="nonzero"/></clipPath><clipPath id="03029f9c57"><path d="M 84 35 L 110 35 L 110 118 L 84 118 Z M 84 35 " clip-rule="nonzero"/></clipPath><clipPath id="a3ef8cb8d2"><path d="M 138.410156 52.3125 L 96.792969 124.160156 L 30.125 85.539062 L 71.742188 13.695312 Z M 138.410156 52.3125 " clip-rule="nonzero"/></clipPath><clipPath id="88a0b72eac"><path d="M 138.410156 52.3125 L 96.792969 124.160156 L 30.125 85.539062 L 71.742188 13.695312 Z M 138.410156 52.3125 " clip-rule="nonzero"/></clipPath><clipPath id="67c999cfe1"><path d="M 138.410156 52.316406 L 96.664062 124.378906 L 54.921875 100.195312 L 96.664062 28.132812 Z M 138.410156 52.316406 " clip-rule="nonzero"/></clipPath><clipPath id="4e539e9a59"><path d="M 30 37 L 81 37 L 81 67 L 30 67 Z M 30 37 " clip-rule="nonzero"/></clipPath><clipPath id="07269e386f"><path d="M 110 68.976562 L 68.382812 140.820312 L 1.714844 102.203125 L 43.332031 30.359375 Z M 110 68.976562 " clip-rule="nonzero"/></clipPath><clipPath id="b2a516215e"><path d="M 110 68.976562 L 68.382812 140.820312 L 1.714844 102.203125 L 43.332031 30.359375 Z M 110 68.976562 " clip-rule="nonzero"/></clipPath><clipPath id="bf4c7397f7"><path d="M 30 52 L 56 52 L 56 134 L 30 134 Z M 30 52 " clip-rule="nonzero"/></clipPath><clipPath id="bc5095f005"><path d="M 110 68.976562 L 68.382812 140.820312 L 1.714844 102.203125 L 43.332031 30.359375 Z M 110 68.976562 " clip-rule="nonzero"/></clipPath><clipPath id="0aaf063721"><path d="M 110 68.976562 L 68.382812 140.820312 L 1.714844 102.203125 L 43.332031 30.359375 Z M 110 68.976562 " clip-rule="nonzero"/></clipPath><clipPath id="d5e8b1850c"><path d="M 84.902344 83.484375 L 55.757812 133.800781 L 1.597656 102.425781 L 30.746094 52.113281 Z M 84.902344 83.484375 " clip-rule="nonzero"/></clipPath><clipPath id="11cb945544"><path d="M 55 52 L 81 52 L 81 134 L 55 134 Z M 55 52 " clip-rule="nonzero"/></clipPath><clipPath id="8734d7ed26"><path d="M 110 68.976562 L 68.382812 140.820312 L 1.714844 102.203125 L 43.332031 30.359375 Z M 110 68.976562 " clip-rule="nonzero"/></clipPath><clipPath id="9b33bbe580"><path d="M 110 68.976562 L 68.382812 140.820312 L 1.714844 102.203125 L 43.332031 30.359375 Z M 110 68.976562 " clip-rule="nonzero"/></clipPath><clipPath id="0c052cb71b"><path d="M 110 68.976562 L 68.253906 141.039062 L 26.511719 116.859375 L 68.253906 44.796875 Z M 110 68.976562 " clip-rule="nonzero"/></clipPath><clipPath id="1e2849a6eb"><path d="M 2 54 L 53 54 L 53 84 L 2 84 Z M 2 54 " clip-rule="nonzero"/></clipPath><clipPath id="0a7c766207"><path d="M 81.664062 85.609375 L 40.046875 157.453125 L -26.621094 118.835938 L 14.996094 46.992188 Z M 81.664062 85.609375 " clip-rule="nonzero"/></clipPath><clipPath id="93dffa1968"><path d="M 81.664062 85.609375 L 40.046875 157.453125 L -26.621094 118.835938 L 14.996094 46.992188 Z M 81.664062 85.609375 " clip-rule="nonzero"/></clipPath><clipPath id="7f939d5b25"><path d="M 2 68 L 28 68 L 28 151 L 2 151 Z M 2 68 " clip-rule="nonzero"/></clipPath><clipPath id="3cd5d05561"><path d="M 81.664062 85.609375 L 40.046875 157.453125 L -26.621094 118.835938 L 14.996094 46.992188 Z M 81.664062 85.609375 " clip-rule="nonzero"/></clipPath><clipPath id="58ceed4c73"><path d="M 81.664062 85.609375 L 40.046875 157.453125 L -26.621094 118.835938 L 14.996094 46.992188 Z M 81.664062 85.609375 " clip-rule="nonzero"/></clipPath><clipPath id="98fd21de95"><path d="M 56.566406 100.117188 L 27.421875 150.433594 L -26.738281 119.058594 L 2.410156 68.746094 Z M 56.566406 100.117188 " clip-rule="nonzero"/></clipPath><clipPath id="ab4515515a"><path d="M 27 68 L 53 68 L 53 151 L 27 151 Z M 27 68 " clip-rule="nonzero"/></clipPath><clipPath id="d97340b963"><path d="M 81.664062 85.609375 L 40.046875 157.453125 L -26.621094 118.835938 L 14.996094 46.992188 Z M 81.664062 85.609375 " clip-rule="nonzero"/></clipPath><clipPath id="59cb0896ec"><path d="M 81.664062 85.609375 L 40.046875 157.453125 L -26.621094 118.835938 L 14.996094 46.992188 Z M 81.664062 85.609375 " clip-rule="nonzero"/></clipPath><clipPath id="f46fde8005"><path d="M 81.664062 85.613281 L 39.917969 157.671875 L -1.824219 133.492188 L 39.921875 61.429688 Z M 81.664062 85.613281 " clip-rule="nonzero"/></clipPath><clipPath id="6e2938345a"><path d="M 126 102 L 374.5 102 L 374.5 170 L 126 170 Z M 126 102 " clip-rule="nonzero"/></clipPath><clipPath id="86e4966725"><rect x="0" width="249" y="0" height="68"/></clipPath></defs><g transform="matrix(1, 0, 0, 1, 125, 26)"><g clip-path="url(#979e447a21)"><g fill="#ffffff" fill-opacity="1"><g transform="translate(0.500159, 74.285769)"><g><path d="M 41.90625 -14.28125 C 44.3125 -14.28125 46.648438 -14.644531 48.921875 -15.375 C 51.191406 -16.101562 52.859375 -16.800781 53.921875 -17.46875 L 55.515625 -18.5625 L 62.234375 -5.125 C 62.003906 -4.957031 61.691406 -4.734375 61.296875 -4.453125 C 60.910156 -4.171875 60.003906 -3.648438 58.578125 -2.890625 C 57.148438 -2.140625 55.625 -1.484375 54 -0.921875 C 52.375 -0.359375 50.242188 0.144531 47.609375 0.59375 C 44.984375 1.039062 42.269531 1.265625 39.46875 1.265625 C 33.03125 1.265625 26.925781 -0.316406 21.15625 -3.484375 C 15.394531 -6.648438 10.75 -11.003906 7.21875 -16.546875 C 3.695312 -22.085938 1.9375 -28.078125 1.9375 -34.515625 C 1.9375 -39.390625 2.96875 -44.066406 5.03125 -48.546875 C 7.101562 -53.023438 9.863281 -56.859375 13.3125 -60.046875 C 16.757812 -63.242188 20.773438 -65.789062 25.359375 -67.6875 C 29.953125 -69.59375 34.65625 -70.546875 39.46875 -70.546875 C 43.945312 -70.546875 48.078125 -70.015625 51.859375 -68.953125 C 55.640625 -67.890625 58.3125 -66.828125 59.875 -65.765625 L 62.234375 -64.171875 L 55.515625 -50.734375 C 55.117188 -51.066406 54.53125 -51.46875 53.75 -51.9375 C 52.96875 -52.414062 51.398438 -53.046875 49.046875 -53.828125 C 46.691406 -54.617188 44.3125 -55.015625 41.90625 -55.015625 C 38.101562 -55.015625 34.6875 -54.394531 31.65625 -53.15625 C 28.632812 -51.925781 26.242188 -50.300781 24.484375 -48.28125 C 22.722656 -46.269531 21.378906 -44.101562 20.453125 -41.78125 C 19.523438 -39.457031 19.0625 -37.09375 19.0625 -34.6875 C 19.0625 -29.425781 21.035156 -24.707031 24.984375 -20.53125 C 28.929688 -16.363281 34.570312 -14.28125 41.90625 -14.28125 Z M 41.90625 -14.28125 "/></g></g></g><g fill="#ffffff" fill-opacity="1"><g transform="translate(59.529619, 74.285769)"><g><path d="M 44.6875 -69.28125 L 44.6875 -55.4375 L 20.828125 -55.4375 L 20.828125 -41.65625 L 43.671875 -41.65625 L 43.671875 -27.796875 L 20.828125 -27.796875 L 20.828125 -13.859375 L 44.6875 -13.859375 L 44.6875 0 L 5.046875 0 L 5.046875 -69.28125 Z M 44.6875 -69.28125 "/></g></g></g><g fill="#ffffff" fill-opacity="1"><g transform="translate(104.032418, 74.285769)"><g><path d="M 40.234375 -69.28125 L 68.203125 0 L 51.234375 0 L 46.109375 -13.859375 L 19.734375 -13.859375 L 14.609375 0 L -2.359375 0 L 25.609375 -69.28125 Z M 40.734375 -27.71875 L 33 -47.875 L 32.84375 -47.875 L 25.109375 -27.71875 Z M 40.734375 -27.71875 "/></g></g></g></g></g><g clip-path="url(#1125bd74bc)"><g clip-path="url(#b78a944115)"><g clip-path="url(#36a357eb7b)"><path fill="#ff914d" d="M 59.164062 35.484375 L 84.339844 20.996094 L 109.296875 35.503906 L 84.140625 49.953125 L 59.164062 35.484375 " fill-opacity="1" fill-rule="nonzero"/></g></g></g><g clip-path="url(#18ad480872)"><g clip-path="url(#4e9bc22ca9)"><g clip-path="url(#86527e385f)"><g clip-path="url(#d57e09dfc8)"><path fill="#7a2f00" d="M 59.117188 102.628906 L 59.152344 35.453125 L 84.132812 49.921875 L 84.148438 117.128906 L 59.117188 102.628906 " fill-opacity="1" fill-rule="nonzero"/></g></g></g></g><g clip-path="url(#03029f9c57)"><g clip-path="url(#a3ef8cb8d2)"><g clip-path="url(#88a0b72eac)"><g clip-path="url(#67c999cfe1)"><path fill="#ff751f" d="M 84.125 49.96875 L 109.238281 35.496094 L 109.304688 102.554688 L 84.148438 117.128906 L 84.125 49.96875 " fill-opacity="1" fill-rule="nonzero"/></g></g></g></g><g clip-path="url(#4e539e9a59)"><g clip-path="url(#07269e386f)"><g clip-path="url(#b2a516215e)"><path fill="#ff914d" d="M 30.753906 52.144531 L 55.933594 37.65625 L 80.886719 52.167969 L 55.734375 66.613281 L 30.753906 52.144531 " fill-opacity="1" fill-rule="nonzero"/></g></g></g><g clip-path="url(#bf4c7397f7)"><g clip-path="url(#bc5095f005)"><g clip-path="url(#0aaf063721)"><g clip-path="url(#d5e8b1850c)"><path fill="#7a2f00" d="M 30.707031 119.289062 L 30.742188 52.113281 L 55.722656 66.585938 L 55.738281 133.789062 L 30.707031 119.289062 " fill-opacity="1" fill-rule="nonzero"/></g></g></g></g><g clip-path="url(#11cb945544)"><g clip-path="url(#8734d7ed26)"><g clip-path="url(#9b33bbe580)"><g clip-path="url(#0c052cb71b)"><path fill="#ff751f" d="M 55.714844 66.628906 L 80.828125 52.160156 L 80.894531 119.21875 L 55.738281 133.789062 L 55.714844 66.628906 " fill-opacity="1" fill-rule="nonzero"/></g></g></g></g><g clip-path="url(#1e2849a6eb)"><g clip-path="url(#0a7c766207)"><g clip-path="url(#93dffa1968)"><path fill="#ff914d" d="M 2.417969 68.777344 L 27.597656 54.292969 L 52.550781 68.800781 L 27.398438 83.25 L 2.417969 68.777344 " fill-opacity="1" fill-rule="nonzero"/></g></g></g><g clip-path="url(#7f939d5b25)"><g clip-path="url(#3cd5d05561)"><g clip-path="url(#58ceed4c73)"><g clip-path="url(#98fd21de95)"><path fill="#7a2f00" d="M 2.371094 135.921875 L 2.40625 68.75 L 27.386719 83.21875 L 27.402344 150.421875 L 2.371094 135.921875 " fill-opacity="1" fill-rule="nonzero"/></g></g></g></g><g clip-path="url(#ab4515515a)"><g clip-path="url(#d97340b963)"><g clip-path="url(#59cb0896ec)"><g clip-path="url(#f46fde8005)"><path fill="#ff751f" d="M 27.378906 83.261719 L 52.492188 68.792969 L 52.5625 135.851562 L 27.402344 150.421875 L 27.378906 83.261719 " fill-opacity="1" fill-rule="nonzero"/></g></g></g></g><g clip-path="url(#6e2938345a)"><g transform="matrix(1, 0, 0, 1, 126, 102)"><g clip-path="url(#86e4966725)"><g fill="#737373" fill-opacity="1"><g transform="translate(0.815304, 47.352783)"><g><path d="M 5.15625 -3.4375 C 2.550781 -6.28125 1.25 -9.757812 1.25 -13.875 C 1.25 -18 2.550781 -21.488281 5.15625 -24.34375 C 7.757812 -27.207031 11.066406 -28.640625 15.078125 -28.640625 C 18.765625 -28.640625 21.800781 -27.484375 24.1875 -25.171875 L 24.1875 -27.828125 L 33.78125 -27.828125 L 33.78125 0 L 24.296875 0 L 24.296875 -3.140625 L 24.1875 -3.140625 C 21.800781 -0.503906 18.765625 0.8125 15.078125 0.8125 C 11.066406 0.8125 7.757812 -0.601562 5.15625 -3.4375 Z M 13.3125 -18.609375 C 12.0625 -17.378906 11.4375 -15.804688 11.4375 -13.890625 C 11.4375 -11.972656 12.03125 -10.40625 13.21875 -9.1875 C 14.414062 -7.976562 15.992188 -7.375 17.953125 -7.375 C 19.828125 -7.375 21.367188 -7.988281 22.578125 -9.21875 C 23.796875 -10.445312 24.40625 -12.003906 24.40625 -13.890625 C 24.40625 -15.804688 23.78125 -17.378906 22.53125 -18.609375 C 21.28125 -19.835938 19.753906 -20.453125 17.953125 -20.453125 C 16.109375 -20.453125 14.5625 -19.835938 13.3125 -18.609375 Z M 13.3125 -18.609375 "/></g></g></g><g fill="#737373" fill-opacity="1"><g transform="translate(35.133641, 47.352783)"><g><path d="M 31.890625 -24.375 C 34.492188 -21.539062 35.796875 -18.0625 35.796875 -13.9375 C 35.796875 -9.8125 34.492188 -6.320312 31.890625 -3.46875 C 29.285156 -0.613281 25.976562 0.8125 21.96875 0.8125 C 18.28125 0.8125 15.242188 -0.34375 12.859375 -2.65625 L 12.859375 14.09375 L 3.25 14.09375 L 3.25 -27.828125 L 12.75 -27.828125 L 12.75 -24.671875 L 12.859375 -24.671875 C 15.242188 -27.316406 18.28125 -28.640625 21.96875 -28.640625 C 25.976562 -28.640625 29.285156 -27.21875 31.890625 -24.375 Z M 23.71875 -9.21875 C 24.96875 -10.445312 25.59375 -12.019531 25.59375 -13.9375 C 25.59375 -15.851562 24.992188 -17.414062 23.796875 -18.625 C 22.609375 -19.84375 21.039062 -20.453125 19.09375 -20.453125 C 17.207031 -20.453125 15.660156 -19.835938 14.453125 -18.609375 C 13.242188 -17.378906 12.640625 -15.820312 12.640625 -13.9375 C 12.640625 -12.019531 13.257812 -10.445312 14.5 -9.21875 C 15.75 -7.988281 17.28125 -7.375 19.09375 -7.375 C 20.9375 -7.375 22.476562 -7.988281 23.71875 -9.21875 Z M 23.71875 -9.21875 "/></g></g></g><g fill="#737373" fill-opacity="1"><g transform="translate(69.451978, 47.352783)"><g><path d="M 31.890625 -24.375 C 34.492188 -21.539062 35.796875 -18.0625 35.796875 -13.9375 C 35.796875 -9.8125 34.492188 -6.320312 31.890625 -3.46875 C 29.285156 -0.613281 25.976562 0.8125 21.96875 0.8125 C 18.28125 0.8125 15.242188 -0.34375 12.859375 -2.65625 L 12.859375 14.09375 L 3.25 14.09375 L 3.25 -27.828125 L 12.75 -27.828125 L 12.75 -24.671875 L 12.859375 -24.671875 C 15.242188 -27.316406 18.28125 -28.640625 21.96875 -28.640625 C 25.976562 -28.640625 29.285156 -27.21875 31.890625 -24.375 Z M 23.71875 -9.21875 C 24.96875 -10.445312 25.59375 -12.019531 25.59375 -13.9375 C 25.59375 -15.851562 24.992188 -17.414062 23.796875 -18.625 C 22.609375 -19.84375 21.039062 -20.453125 19.09375 -20.453125 C 17.207031 -20.453125 15.660156 -19.835938 14.453125 -18.609375 C 13.242188 -17.378906 12.640625 -15.820312 12.640625 -13.9375 C 12.640625 -12.019531 13.257812 -10.445312 14.5 -9.21875 C 15.75 -7.988281 17.28125 -7.375 19.09375 -7.375 C 20.9375 -7.375 22.476562 -7.988281 23.71875 -9.21875 Z M 23.71875 -9.21875 "/></g></g></g><g fill="#737373" fill-opacity="1"><g transform="translate(103.770315, 47.352783)"><g/></g></g><g fill="#737373" fill-opacity="1"><g transform="translate(115.85952, 47.352783)"><g><path d="M 15.34375 -28.640625 C 16.9375 -28.640625 18.507812 -28.457031 20.0625 -28.09375 C 21.625 -27.726562 22.78125 -27.367188 23.53125 -27.015625 L 24.671875 -26.46875 L 21.53125 -20.171875 C 19.363281 -21.328125 17.300781 -21.90625 15.34375 -21.90625 C 14.257812 -21.90625 13.488281 -21.785156 13.03125 -21.546875 C 12.582031 -21.316406 12.359375 -20.878906 12.359375 -20.234375 C 12.359375 -20.085938 12.375 -19.941406 12.40625 -19.796875 C 12.445312 -19.648438 12.519531 -19.515625 12.625 -19.390625 C 12.738281 -19.265625 12.84375 -19.15625 12.9375 -19.0625 C 13.03125 -18.96875 13.179688 -18.867188 13.390625 -18.765625 C 13.609375 -18.660156 13.78125 -18.578125 13.90625 -18.515625 C 14.03125 -18.460938 14.238281 -18.378906 14.53125 -18.265625 C 14.820312 -18.160156 15.039062 -18.082031 15.1875 -18.03125 C 15.332031 -17.976562 15.578125 -17.894531 15.921875 -17.78125 C 16.265625 -17.675781 16.523438 -17.609375 16.703125 -17.578125 C 17.828125 -17.242188 18.800781 -16.878906 19.625 -16.484375 C 20.457031 -16.085938 21.332031 -15.546875 22.25 -14.859375 C 23.175781 -14.171875 23.894531 -13.300781 24.40625 -12.25 C 24.914062 -11.207031 25.171875 -10.015625 25.171875 -8.671875 C 25.171875 -2.347656 20.773438 0.8125 11.984375 0.8125 C 9.992188 0.8125 8.101562 0.503906 6.3125 -0.109375 C 4.53125 -0.722656 3.238281 -1.335938 2.4375 -1.953125 L 1.25 -2.921875 L 5.15625 -9.484375 C 5.445312 -9.234375 5.828125 -8.9375 6.296875 -8.59375 C 6.765625 -8.25 7.613281 -7.78125 8.84375 -7.1875 C 10.070312 -6.59375 11.140625 -6.296875 12.046875 -6.296875 C 14.023438 -6.296875 15.015625 -6.960938 15.015625 -8.296875 C 15.015625 -8.910156 14.757812 -9.390625 14.25 -9.734375 C 13.75 -10.078125 12.894531 -10.460938 11.6875 -10.890625 C 10.476562 -11.328125 9.53125 -11.726562 8.84375 -12.09375 C 7.101562 -13 5.726562 -14.019531 4.71875 -15.15625 C 3.707031 -16.289062 3.203125 -17.800781 3.203125 -19.6875 C 3.203125 -22.507812 4.296875 -24.707031 6.484375 -26.28125 C 8.671875 -27.851562 11.625 -28.640625 15.34375 -28.640625 Z M 15.34375 -28.640625 "/></g></g></g><g fill="#737373" fill-opacity="1"><g transform="translate(139.822339, 47.352783)"><g><path d="M 4.875 -27.828125 L 4.875 -38.1875 L 14.484375 -38.1875 L 14.484375 -27.828125 L 20.34375 -27.828125 L 20.34375 -20.5 L 14.484375 -20.5 L 14.484375 -11.65625 C 14.484375 -9.09375 15.207031 -7.8125 16.65625 -7.8125 C 17.007812 -7.8125 17.382812 -7.882812 17.78125 -8.03125 C 18.1875 -8.175781 18.492188 -8.316406 18.703125 -8.453125 L 19.03125 -8.671875 L 21.421875 -0.921875 C 19.359375 0.234375 17.007812 0.8125 14.375 0.8125 C 12.5625 0.8125 11.003906 0.5 9.703125 -0.125 C 8.398438 -0.757812 7.414062 -1.609375 6.75 -2.671875 C 6.082031 -3.742188 5.601562 -4.867188 5.3125 -6.046875 C 5.019531 -7.222656 4.875 -8.476562 4.875 -9.8125 L 4.875 -20.5 L 0.875 -20.5 L 0.875 -27.828125 Z M 4.875 -27.828125 "/></g></g></g><g fill="#737373" fill-opacity="1"><g transform="translate(158.526074, 47.352783)"><g><path d="M 5.875 -3.3125 C 2.789062 -6.0625 1.25 -9.585938 1.25 -13.890625 C 1.25 -18.191406 2.859375 -21.722656 6.078125 -24.484375 C 9.296875 -27.253906 13.269531 -28.640625 18 -28.640625 C 22.664062 -28.640625 26.597656 -27.242188 29.796875 -24.453125 C 32.992188 -21.671875 34.59375 -18.144531 34.59375 -13.875 C 34.59375 -9.613281 33.03125 -6.097656 29.90625 -3.328125 C 26.78125 -0.566406 22.8125 0.8125 18 0.8125 C 13.007812 0.8125 8.96875 -0.5625 5.875 -3.3125 Z M 13.3125 -18.609375 C 12.0625 -17.378906 11.4375 -15.804688 11.4375 -13.890625 C 11.4375 -11.972656 12.03125 -10.40625 13.21875 -9.1875 C 14.414062 -7.976562 15.992188 -7.375 17.953125 -7.375 C 19.828125 -7.375 21.367188 -7.988281 22.578125 -9.21875 C 23.796875 -10.445312 24.40625 -12.003906 24.40625 -13.890625 C 24.40625 -15.804688 23.78125 -17.378906 22.53125 -18.609375 C 21.28125 -19.835938 19.753906 -20.453125 17.953125 -20.453125 C 16.109375 -20.453125 14.5625 -19.835938 13.3125 -18.609375 Z M 13.3125 -18.609375 "/></g></g></g><g fill="#737373" fill-opacity="1"><g transform="translate(191.65161, 47.352783)"><g><path d="M 3.25 0 L 3.25 -27.828125 L 12.859375 -27.828125 L 12.859375 -23.8125 L 12.96875 -23.8125 C 13.039062 -23.957031 13.15625 -24.132812 13.3125 -24.34375 C 13.476562 -24.5625 13.832031 -24.941406 14.375 -25.484375 C 14.914062 -26.023438 15.492188 -26.515625 16.109375 -26.953125 C 16.722656 -27.390625 17.515625 -27.78125 18.484375 -28.125 C 19.460938 -28.46875 20.460938 -28.640625 21.484375 -28.640625 C 22.523438 -28.640625 23.550781 -28.492188 24.5625 -28.203125 C 25.582031 -27.910156 26.328125 -27.617188 26.796875 -27.328125 L 27.546875 -26.90625 L 23.53125 -18.765625 C 22.34375 -19.773438 20.679688 -20.28125 18.546875 -20.28125 C 17.390625 -20.28125 16.394531 -20.023438 15.5625 -19.515625 C 14.726562 -19.015625 14.140625 -18.398438 13.796875 -17.671875 C 13.453125 -16.953125 13.207031 -16.335938 13.0625 -15.828125 C 12.925781 -15.328125 12.859375 -14.929688 12.859375 -14.640625 L 12.859375 0 Z M 3.25 0 "/></g></g></g><g fill="#737373" fill-opacity="1"><g transform="translate(215.939721, 47.352783)"><g><path d="M 31.40625 -12.578125 L 11.21875 -12.578125 C 11.21875 -10.628906 11.847656 -9.179688 13.109375 -8.234375 C 14.378906 -7.296875 15.757812 -6.828125 17.25 -6.828125 C 18.800781 -6.828125 20.03125 -7.035156 20.9375 -7.453125 C 21.84375 -7.867188 22.875 -8.691406 24.03125 -9.921875 L 30.96875 -6.453125 C 28.070312 -1.609375 23.265625 0.8125 16.546875 0.8125 C 12.347656 0.8125 8.75 -0.625 5.75 -3.5 C 2.75 -6.375 1.25 -9.832031 1.25 -13.875 C 1.25 -17.925781 2.75 -21.398438 5.75 -24.296875 C 8.75 -27.191406 12.347656 -28.640625 16.546875 -28.640625 C 20.953125 -28.640625 24.535156 -27.363281 27.296875 -24.8125 C 30.066406 -22.257812 31.453125 -18.617188 31.453125 -13.890625 C 31.453125 -13.234375 31.4375 -12.796875 31.40625 -12.578125 Z M 11.5 -17.890625 L 22.078125 -17.890625 C 21.859375 -19.335938 21.285156 -20.453125 20.359375 -21.234375 C 19.441406 -22.015625 18.257812 -22.40625 16.8125 -22.40625 C 15.21875 -22.40625 13.953125 -21.988281 13.015625 -21.15625 C 12.078125 -20.320312 11.570312 -19.234375 11.5 -17.890625 Z M 11.5 -17.890625 "/></g></g></g></g></g></g></svg>