<svg xmlns="http://www.w3.org/2000/svg" xmlns:xlink="http://www.w3.org/1999/xlink" width="500" zoomAndPan="magnify" viewBox="0 0 375 374.999991" height="500" preserveAspectRatio="xMidYMid meet" version="1.0"><defs><clipPath id="e58943eec5"><path d="M 0.046875 181.511719 L 356.992188 181.511719 L 356.992188 361.117188 L 0.046875 361.117188 Z M 0.046875 181.511719 " clip-rule="nonzero"/></clipPath><clipPath id="68e9ac98a2"><path d="M 83.921875 101.921875 L 291.074219 101.921875 L 291.074219 270.671875 L 83.921875 270.671875 Z M 83.921875 101.921875 " clip-rule="nonzero"/></clipPath></defs><path fill="#10b981" d="M 188.75 34.78125 C 252.894531 34.78125 307.921875 74.515625 330.546875 130.65625 C 330.566406 130.703125 330.539062 130.757812 330.492188 130.773438 L 311.832031 136.640625 C 307.921875 137.867188 306.808594 142.867188 309.828125 145.636719 L 352.648438 184.945312 C 355.667969 187.714844 360.550781 186.179688 361.441406 182.179688 L 374.070312 125.441406 C 374.960938 121.445312 371.191406 117.980469 367.28125 119.210938 L 350.742188 124.410156 C 350.699219 124.421875 350.648438 124.398438 350.636719 124.355469 C 342.738281 104.128906 331.019531 85.429688 315.832031 69.160156 C 280.964844 31.808594 231.214844 11.625 180.175781 14.089844 C 136.992188 16.175781 96.695312 33.984375 65.914062 64.765625 C 45.691406 84.988281 31.070312 109.316406 22.824219 135.871094 C 20.738281 142.601562 25.800781 149.421875 32.847656 149.421875 L 32.859375 149.421875 C 37.449219 149.421875 41.492188 146.433594 42.859375 142.054688 C 62.285156 79.964844 120.339844 34.78125 188.75 34.78125 " fill-opacity="1" fill-rule="nonzero"/><g clip-path="url(#e58943eec5)"><path fill="#10b981" d="M 188.75 340.421875 C 122.476562 340.421875 65.933594 298.011719 44.804688 238.914062 C 44.785156 238.863281 44.816406 238.808594 44.867188 238.796875 L 62.851562 234.90625 C 66.855469 234.039062 68.417969 229.164062 65.664062 226.128906 L 26.933594 183.425781 C 24.179688 180.390625 19.175781 181.472656 17.925781 185.375 L 0.308594 240.273438 C -0.945312 244.171875 2.496094 247.964844 6.503906 247.097656 L 24.03125 243.304688 C 24.074219 243.296875 24.121094 243.320312 24.132812 243.363281 C 32.574219 268.347656 46.71875 291.246094 65.914062 310.4375 C 98.722656 343.25 142.347656 361.320312 188.75 361.320312 C 235.152344 361.320312 278.777344 343.25 311.585938 310.4375 C 333.464844 288.558594 348.78125 261.875 356.558594 232.761719 C 358.34375 226.089844 353.351562 219.535156 346.445312 219.535156 C 341.703125 219.535156 337.5625 222.726562 336.328125 227.308594 C 318.800781 292.382812 259.285156 340.421875 188.75 340.421875 " fill-opacity="1" fill-rule="nonzero"/></g><g clip-path="url(#68e9ac98a2)"><path fill="#10b981" d="M 96.648438 141.484375 C 96.648438 134.273438 102.519531 128.40625 109.730469 128.40625 L 156.546875 128.40625 L 165.222656 115.378906 C 165.464844 115.09375 166.21875 114.691406 166.511719 114.648438 L 208.414062 114.648438 C 208.773438 114.691406 209.519531 115.085938 209.71875 115.3125 L 218.449219 128.40625 L 265.273438 128.40625 C 272.484375 128.40625 278.351562 134.273438 278.351562 141.484375 L 278.351562 245.183594 C 278.351562 252.398438 272.484375 258.269531 265.273438 258.269531 L 109.730469 258.269531 C 102.519531 258.269531 96.648438 252.398438 96.648438 245.183594 Z M 109.730469 270.992188 L 265.273438 270.992188 C 279.5 270.992188 291.074219 259.414062 291.074219 245.183594 L 291.074219 141.484375 C 291.074219 127.257812 279.5 115.679688 265.273438 115.679688 L 225.261719 115.679688 L 220.3125 108.261719 C 217.875 104.589844 212.902344 101.925781 208.488281 101.925781 L 166.511719 101.925781 C 162.039062 101.925781 157.179688 104.523438 154.683594 108.25 L 149.730469 115.679688 L 109.730469 115.679688 C 95.5 115.679688 83.921875 127.257812 83.921875 141.484375 L 83.921875 245.183594 C 83.921875 259.414062 95.5 270.992188 109.730469 270.992188 " fill-opacity="1" fill-rule="nonzero"/></g><path fill="#10b981" d="M 187.5 149.800781 C 211.511719 149.800781 231.042969 169.332031 231.042969 193.34375 C 231.042969 217.347656 211.511719 236.875 187.5 236.875 C 163.492188 236.875 143.957031 217.347656 143.957031 193.34375 C 143.957031 169.332031 163.492188 149.800781 187.5 149.800781 Z M 187.5 249.601562 C 218.527344 249.601562 243.765625 224.363281 243.765625 193.34375 C 243.765625 162.316406 218.527344 137.074219 187.5 137.074219 C 156.472656 137.074219 131.234375 162.316406 131.234375 193.34375 C 131.234375 224.363281 156.472656 249.601562 187.5 249.601562 " fill-opacity="1" fill-rule="nonzero"/><path fill="#10b981" d="M 187.5 223.859375 C 204.355469 223.859375 218.023438 210.195312 218.023438 193.339844 C 218.023438 176.480469 204.355469 162.816406 187.5 162.816406 C 170.644531 162.816406 156.976562 176.480469 156.976562 193.339844 C 156.976562 210.195312 170.644531 223.859375 187.5 223.859375 " fill-opacity="1" fill-rule="nonzero"/><path fill="#10b981" d="M 120.453125 142.351562 C 124.15625 142.351562 127.164062 145.359375 127.164062 149.058594 C 127.164062 152.757812 124.15625 155.769531 120.453125 155.769531 C 116.753906 155.769531 113.742188 152.757812 113.742188 149.058594 C 113.742188 145.359375 116.753906 142.351562 120.453125 142.351562 Z M 120.453125 164.253906 C 128.832031 164.253906 135.648438 157.4375 135.648438 149.058594 C 135.648438 140.683594 128.832031 133.863281 120.453125 133.863281 C 112.074219 133.863281 105.257812 140.683594 105.257812 149.058594 C 105.257812 157.4375 112.074219 164.253906 120.453125 164.253906 " fill-opacity="1" fill-rule="nonzero"/></svg>